# xmcd CD database file
#
# Track frame offsets:
#	150
#	20155
#	37405
#	55067
#	73665
#	92780
#	112670
#	130632
#	147525
#	165065
#
# Disc length: 2403 seconds
#
# Revision: 2
# Processed by: cddbd v1.4PL0 Copyright (c) Steve Scherf et al.
# Submitted via: CDex 1.40Beta9
#
DISCID=8509610a
DTITLE=Paola and Chiara - Ci chiamano bambine
DYEAR=1997
DGENRE=Pop
TTITLE0=Ci chiamano bambine
TTITLE1=Tu non sai
TTITLE2=Vola il tempo
TTITLE3=Amici come prima
TTITLE4=Bella
TTITLE5=Nascondi te
TTITLE6=Mi fa morire
TTITLE7=Francy
TTITLE8=Amore mio
TTITLE9=In viaggio
EXTD=YEAR: 1997 ID3G: 13
EXTT0=With Massive Attack
EXTT1=Theme from the motion picture ``With Honors''
EXTT2=
EXTT3=
EXTT4=
EXTT5=
EXTT6=
EXTT7=
EXTT8=
EXTT9=
PLAYORDER=
